<!-- Generated by IcoMoon.io -->
<svg version="1.1" xmlns="http://www.w3.org/2000/svg" width="38" height="32" viewBox="0 0 38 32">
<title>mail</title>
<path d="M29.6 0h-20.8c-1.323 0-2.4 1.077-2.4 2.4v14.4c0 1.323 1.077 2.4 2.4 2.4h20.8c1.323 0 2.4-1.077 2.4-2.4v-14.4c0-1.323-1.077-2.4-2.4-2.4zM29.6 1.6c0.109 0 0.212 0.023 0.307 0.062l-10.707 9.28-10.707-9.28c0.095-0.039 0.198-0.062 0.307-0.062h20.8zM29.6 17.6h-20.8c-0.441 0-0.8-0.359-0.8-0.8v-13.448l10.676 9.252c0.151 0.13 0.337 0.195 0.524 0.195s0.373-0.065 0.524-0.195l10.676-9.252v13.448c0 0.441-0.359 0.8-0.8 0.8z"></path>
<path fill="none" stroke-linejoin="miter" stroke-linecap="butt" stroke-miterlimit="4" stroke-width="1.6" stroke="#000" d="M30.431 2.266l0.621-0.538c0 0 0 0 0 0.001l-11.328 9.817 10.707-9.28zM18.676 11.546l-11.328-9.817c0-0 0-0 0-0l11.328 9.818zM8.186 0.923l-0.037 0.016c0.189-0.085 0.397-0.134 0.615-0.138-0.207 0.005-0.402 0.050-0.578 0.123zM30.253 0.939l-0.039-0.016c-0.174-0.073-0.368-0.118-0.573-0.123 0.217 0.006 0.424 0.055 0.612 0.139zM8.8 18.4c-0.053 0-0.106-0.003-0.158-0.008 0.052 0.005 0.105 0.008 0.158 0.008h20.8c0.883 0 1.6-0.717 1.6-1.6 0 0.881-0.718 1.6-1.6 1.6h-20.8zM29.6 2.4v0zM8.8 2.4v0z"></path>
</svg>
