<!-- Generated by IcoMoon.io -->
<svg version="1.1" xmlns="http://www.w3.org/2000/svg" width="24" height="32" viewBox="0 0 24 32">
<title>smartphone</title>
<path d="M16.667 0h-9.333c-1.103 0-2 0.897-2 2v17.333c0 1.103 0.897 2 2 2h9.333c1.103 0 2-0.897 2-2v-17.333c0-1.103-0.897-2-2-2zM7.333 1.333h9.333c0.368 0 0.667 0.299 0.667 0.667v14h-10.667v-14c0-0.368 0.299-0.667 0.667-0.667zM16.667 20h-9.333c-0.368 0-0.667-0.299-0.667-0.667v-2h10.667v2c0 0.368-0.299 0.667-0.667 0.667z"></path>
<path d="M8.471 18.319c0.26 0.243 0.26 0.637 0 0.88s-0.682 0.243-0.943 0c-0.26-0.243-0.26-0.637 0-0.88s0.682-0.243 0.943 0z"></path>
</svg>
